<svg xmlns="http://www.w3.org/2000/svg" xmlns:xlink="http://www.w3.org/1999/xlink" width="316.137" height="384.045" viewBox="0 0 316.137 384.045">
  <defs>
    <clipPath id="clip-path">
      <rect id="Rectangle_3699" data-name="Rectangle 3699" width="316.137" height="384.045" fill="none"/>
    </clipPath>
    <clipPath id="clip-path-5">
      <rect id="Rectangle_3597" data-name="Rectangle 3597" width="10.214" height="9.373" fill="none"/>
    </clipPath>
    <clipPath id="clip-path-6">
      <path id="Path_6860" data-name="Path 6860" d="M72.5,39.244a1.041,1.041,0,1,0,0,2.081l27.11-.01a1.042,1.042,0,1,0,0-2.083Z" transform="translate(-71.423 -39.232)" fill="none"/>
    </clipPath>
    <clipPath id="clip-path-7">
      <path id="Path_6861" data-name="Path 6861" d="M87.931,40.761a1.822,1.822,0,1,0,1.823-1.825,1.825,1.825,0,0,0-1.823,1.825" transform="translate(-87.931 -38.936)" fill="none"/>
    </clipPath>
    <clipPath id="clip-path-8">
      <path id="Path_6862" data-name="Path 6862" d="M82.193,129.568a5.677,5.677,0,1,0,.006,11.354h.639a5.679,5.679,0,1,0-.006-11.358Z" transform="translate(-76.517 -129.564)" fill="none"/>
    </clipPath>
    <clipPath id="clip-path-14">
      <rect id="Rectangle_3622" data-name="Rectangle 3622" width="43.101" height="4.097" fill="none"/>
    </clipPath>
    <clipPath id="clip-path-15">
      <path id="Path_6882" data-name="Path 6882" d="M117.1,87.481v-4.1h32.615l3.266.81c3.043.751,6.082,1.971,7.219,3.287Z" transform="translate(-117.098 -83.384)" fill="none"/>
    </clipPath>
    <linearGradient id="linear-gradient" x1="-5.515" y1="52.425" x2="-5.468" y2="52.425" gradientUnits="objectBoundingBox">
      <stop offset="0" stop-color="#ffbd49"/>
      <stop offset="1" stop-color="#fdaf32"/>
    </linearGradient>
    <clipPath id="clip-path-19">
      <rect id="Rectangle_3657" data-name="Rectangle 3657" width="7.884" height="26.26" fill="none"/>
    </clipPath>
    <clipPath id="clip-path-20">
      <path id="Path_6909" data-name="Path 6909" d="M38.706,116.507V91.43a.59.59,0,0,0-.591-.589H30.821V116.4a.7.7,0,0,0,.7.7h6.6a.594.594,0,0,0,.591-.595" transform="translate(-30.821 -90.841)" fill="none"/>
    </clipPath>
    <linearGradient id="linear-gradient-2" x1="-7.935" y1="7.602" x2="-7.678" y2="7.602" gradientUnits="objectBoundingBox">
      <stop offset="0"/>
      <stop offset="1" stop-color="#fff"/>
    </linearGradient>
    <clipPath id="clip-path-22">
      <rect id="Rectangle_3661" data-name="Rectangle 3661" width="37.184" height="0.784" fill="none"/>
    </clipPath>
    <clipPath id="clip-path-24">
      <rect id="Rectangle_3665" data-name="Rectangle 3665" width="26" height="0.55" fill="none"/>
    </clipPath>
    <clipPath id="clip-path-27">
      <rect id="Rectangle_3690" data-name="Rectangle 3690" width="7.504" height="5.408" fill="none"/>
    </clipPath>
    <clipPath id="clip-path-28">
      <path id="Path_6931" data-name="Path 6931" d="M59.38,31.028a1.545,1.545,0,0,1-1.06,1.7,11.928,11.928,0,0,0-4.032,2.324,1.543,1.543,0,0,1-2,.063,1.413,1.413,0,0,1,.2-2.113,14.654,14.654,0,0,1,4.957-2.858,1.416,1.416,0,0,1,1.933.881" transform="translate(-51.899 -30.05)" fill="none"/>
    </clipPath>
    <linearGradient id="linear-gradient-3" x1="-13.474" y1="56.009" x2="-13.214" y2="56.009" gradientUnits="objectBoundingBox">
      <stop offset="0" stop-color="#ffd149"/>
      <stop offset="1" stop-color="#fdaf32"/>
    </linearGradient>
    <clipPath id="clip-path-29">
      <rect id="Rectangle_3693" data-name="Rectangle 3693" width="3.193" height="3.195" fill="none"/>
    </clipPath>
    <clipPath id="clip-path-31">
      <rect id="Rectangle_3710" data-name="Rectangle 3710" width="224.151" height="236.768" fill="none"/>
    </clipPath>
  </defs>
  <g id="Group_13472" data-name="Group 13472" transform="translate(-516 1510)">
    <g id="Group_13470" data-name="Group 13470" transform="translate(-33.863 19)">
      <g id="Group_13454" data-name="Group 13454" transform="translate(549.863 -1529)" clip-path="url(#clip-path)">
        <g id="Group_13237" data-name="Group 13237">
          <g id="Group_13236" data-name="Group 13236" clip-path="url(#clip-path)">
            <path id="Path_6847" data-name="Path 6847" d="M159.976,24.987a75.466,75.466,0,0,0,33.661,25.169c19.353,7.282,34.861,1.066,57.941,9.753a75.8,75.8,0,0,1-7.128,144.185c-.012.15-35.667,6.914-48.69,41.527-5.688,15.1-4.432,27.633-10.148,42.839A88.133,88.133,0,0,1,20.643,226.371c6.713-17.842,19.458-25.778,27.607-47.429a65.282,65.282,0,0,0-8.262-61.378c.061-.083-22.6-27.981-7.389-68.412A75.771,75.771,0,0,1,159.8,25.015a.979.979,0,0,1,.175-.028" transform="translate(15.419 0)" fill="#f6f9ff"/>
          </g>
        </g>
        <g id="Group_13256" data-name="Group 13256">
          <g id="Group_13255" data-name="Group 13255" clip-path="url(#clip-path)">
            <g id="Group_13254" data-name="Group 13254" transform="translate(198.296 341.425)" opacity="0.2" style="mix-blend-mode: multiply;isolation: isolate">
              <g id="Group_13253" data-name="Group 13253">
                <g id="Group_13252" data-name="Group 13252" clip-path="url(#clip-path-5)">
                  <path id="Path_6853" data-name="Path 6853" d="M98.595,174.511c2.109-4.259,8.731-6.293,8.983-6.328l.315.1s-6.565,3.366-8.6,6.977a23.281,23.281,0,0,0-.995,2.3c-.087-.191-.185-.4-.27-.558-.12-.053-.235-.112-.349-.16a15.492,15.492,0,0,1,.916-2.326" transform="translate(-97.679 -168.183)" fill="#feb783"/>
                </g>
              </g>
            </g>
          </g>
        </g>
        <g id="Group_13260" data-name="Group 13260" transform="translate(144.995 79.644)">
          <g id="Group_13259" data-name="Group 13259" clip-path="url(#clip-path-6)">
            <rect id="Rectangle_3600" data-name="Rectangle 3600" width="24.16" height="19.917" transform="translate(-1.023 0.818) rotate(-38.66)" fill="#f9faff"/>
          </g>
        </g>
        <g id="Group_13262" data-name="Group 13262" transform="translate(178.507 79.043)">
          <g id="Group_13261" data-name="Group 13261" clip-path="url(#clip-path-7)">
            <rect id="Rectangle_3601" data-name="Rectangle 3601" width="5.127" height="5.128" transform="matrix(0.781, -0.625, 0.625, 0.781, -1.782, 1.425)" fill="#f9faff"/>
          </g>
        </g>
        <g id="Group_13264" data-name="Group 13264" transform="translate(155.336 263.026)">
          <g id="Group_13263" data-name="Group 13263" clip-path="url(#clip-path-8)">
            <rect id="Rectangle_3602" data-name="Rectangle 3602" width="16.197" height="16.35" transform="translate(-5.349 7.6) rotate(-54.865)" fill="#f9faff"/>
          </g>
        </g>
        <g id="Group_13310" data-name="Group 13310">
          <g id="Group_13309" data-name="Group 13309" clip-path="url(#clip-path)">
            <g id="Group_13308" data-name="Group 13308" transform="translate(237.719 169.276)" opacity="0.3" style="mix-blend-mode: screen;isolation: isolate">
              <g id="Group_13307" data-name="Group 13307">
                <g id="Group_13306" data-name="Group 13306" clip-path="url(#clip-path-14)">
                  <g id="Group_13305" data-name="Group 13305">
                    <g id="Group_13304" data-name="Group 13304" clip-path="url(#clip-path-15)">
                      <rect id="Rectangle_3621" data-name="Rectangle 3621" width="43.101" height="4.097" transform="translate(0 0)" fill="url(#linear-gradient)"/>
                    </g>
                  </g>
                </g>
              </g>
            </g>
          </g>
        </g>
        <g id="Group_13343" data-name="Group 13343">
          <g id="Group_13342" data-name="Group 13342" clip-path="url(#clip-path)">
            <path id="Path_6904" data-name="Path 6904" d="M87.044,89.11v0Z" transform="translate(89.663 91.468)" fill="#ccc"/>
          </g>
        </g>
        <g id="Group_13374" data-name="Group 13374">
          <g id="Group_13373" data-name="Group 13373" clip-path="url(#clip-path)">
            <g id="Group_13372" data-name="Group 13372" transform="translate(62.57 184.415)" opacity="0.6" style="mix-blend-mode: multiply;isolation: isolate">
              <g id="Group_13371" data-name="Group 13371">
                <g id="Group_13370" data-name="Group 13370" clip-path="url(#clip-path-19)">
                  <g id="Group_13369" data-name="Group 13369" transform="translate(-0.001 0)">
                    <g id="Group_13368" data-name="Group 13368" clip-path="url(#clip-path-20)">
                      <rect id="Rectangle_3656" data-name="Rectangle 3656" width="7.885" height="26.261" fill="url(#linear-gradient-2)"/>
                    </g>
                  </g>
                </g>
              </g>
            </g>
          </g>
        </g>
        <g id="Group_13381" data-name="Group 13381">
          <g id="Group_13380" data-name="Group 13380" clip-path="url(#clip-path)">
            <g id="Group_13379" data-name="Group 13379" transform="translate(64.952 180.111)" opacity="0.3" style="mix-blend-mode: screen;isolation: isolate">
              <g id="Group_13378" data-name="Group 13378">
                <g id="Group_13377" data-name="Group 13377" clip-path="url(#clip-path-22)">
                  <path id="Path_6911" data-name="Path 6911" d="M32,89.072V89.5H69.178v-.432a.675.675,0,0,0-.108-.351H32.1a.675.675,0,0,0-.108.351" transform="translate(-31.994 -88.721)" fill="#ffab70"/>
                </g>
              </g>
            </g>
          </g>
        </g>
        <g id="Group_13391" data-name="Group 13391">
          <g id="Group_13390" data-name="Group 13390" clip-path="url(#clip-path)">
            <g id="Group_13386" data-name="Group 13386" transform="translate(71.635 158.387)" opacity="0.3" style="mix-blend-mode: screen;isolation: isolate">
              <g id="Group_13385" data-name="Group 13385">
                <g id="Group_13384" data-name="Group 13384" clip-path="url(#clip-path-24)">
                  <path id="Path_6913" data-name="Path 6913" d="M35.287,78.268v.3h26v-.3a.528.528,0,0,0-.075-.248H35.362a.505.505,0,0,0-.075.248" transform="translate(-35.286 -78.02)" fill="#ffab70"/>
                </g>
              </g>
            </g>
          </g>
        </g>
        <g id="Group_13445" data-name="Group 13445">
          <g id="Group_13444" data-name="Group 13444" clip-path="url(#clip-path)">
            <g id="Group_13435" data-name="Group 13435" transform="translate(105.359 61.004)" opacity="0.6" style="mix-blend-mode: screen;isolation: isolate">
              <g id="Group_13434" data-name="Group 13434">
                <g id="Group_13433" data-name="Group 13433" clip-path="url(#clip-path-27)">
                  <g id="Group_13432" data-name="Group 13432" transform="translate(0 0)">
                    <g id="Group_13431" data-name="Group 13431" clip-path="url(#clip-path-28)">
                      <rect id="Rectangle_3689" data-name="Rectangle 3689" width="7.806" height="5.772" transform="translate(-0.185 -0.209)" fill="url(#linear-gradient-3)"/>
                    </g>
                  </g>
                </g>
              </g>
            </g>
            <g id="Group_13443" data-name="Group 13443" transform="translate(117.192 78.507)" style="mix-blend-mode: screen;isolation: isolate">
              <g id="Group_13442" data-name="Group 13442">
                <g id="Group_13441" data-name="Group 13441" clip-path="url(#clip-path-29)">
                  <path id="Path_6935" data-name="Path 6935" d="M58.615,38.838a1.6,1.6,0,1,1-.721,2.142,1.6,1.6,0,0,1,.721-2.142" transform="translate(-57.727 -38.671)" fill="#f65662"/>
                </g>
              </g>
            </g>
          </g>
        </g>
        <g id="Group_13453" data-name="Group 13453">
          <g id="Group_13452" data-name="Group 13452" clip-path="url(#clip-path)">
            <path id="Path_6942" data-name="Path 6942" d="M43.978,93.709c1.685-16.05-8.849-30.313-23.525-31.856S2.323,73.737.64,89.787s-.962,28.661,13.711,30.2,27.942-10.224,29.627-26.277" transform="translate(0 63.59)" fill="#f6f9ff"/>
            <path id="Path_6943" data-name="Path 6943" d="M137.1,116.8c-11.115,11.7-11.45,29.43-.753,39.595s21.614,1.62,32.731-10.083,18.224-22.14,7.523-32.3-28.385-8.916-39.5,2.789" transform="translate(132.409 110.356)" fill="#f6f9ff"/>
          </g>
        </g>
      </g>
    </g>
    <g id="Group_13471" data-name="Group 13471" transform="translate(-447.911 102.18)">
      <g id="Group_13469" data-name="Group 13469" transform="translate(1009.911 -1538.18)">
        <g id="Group_13468" data-name="Group 13468" clip-path="url(#clip-path-31)">
          <g id="Group_13467" data-name="Group 13467">
            <g id="Group_13466" data-name="Group 13466" clip-path="url(#clip-path-31)">
              <path id="Path_6948" data-name="Path 6948" d="M103.426,593.136a20.488,20.488,0,1,0-20.487,20.626,20.557,20.557,0,0,0,20.487-20.626" transform="translate(-54.582 -499.888)" fill="#84b2fe" fill-rule="evenodd"/>
              <path id="Path_6949" data-name="Path 6949" d="M91.177,593.136a20.488,20.488,0,1,0-20.487,20.626,20.557,20.557,0,0,0,20.487-20.626" transform="translate(-43.877 -499.888)" fill="#dfe6ff" fill-rule="evenodd"/>
              <path id="Path_6950" data-name="Path 6950" d="M133.8,633.48c-3.948-2.574-7.914-7.612-6.709-11.419.629-1.418-1.576-1.456-2.483-.6-3.058,3.49.351,8.229-.556,9.106-.371.746-4.985.168-6.636.9-1.353.671-1.8,1.9-1.075,2.948.353.522,1.224.578,1.335.821.073.205-1.687-.261-2.41,1.195a1.883,1.883,0,0,0,.908,2.594c.593.261,1.538-.075,1.705.186.185.242-1.817.41-2.113,1.9a1.833,1.833,0,0,0,1.224,1.94c.556.224,1.631-.019,1.742.261.148.336-1.557.28-1.205,2.147a2.336,2.336,0,0,0,1.853,1.548,18.358,18.358,0,0,0,14.531-2.818Z" transform="translate(-100.581 -542.132)" fill="#fff"/>
              <rect id="Rectangle_3701" data-name="Rectangle 3701" width="4.374" height="12.39" transform="translate(34.738 90.564)" fill="#4b76ba"/>
              <path id="Path_6951" data-name="Path 6951" d="M281.681,794.366a.821.821,0,1,1-.815.821.82.82,0,0,1,.815-.821" transform="translate(-245.478 -693.602)" fill="#dfe4f2"/>
              <path id="Path_6952" data-name="Path 6952" d="M1364.567,991.871c-4.087-5.135-7.4-18.453-4.527-28.047.86-2.944,3.877-13.1,9.677-11.19,1.97,3.1-.7,10.882,5.918,9.305,2.98-1.744-4.929-7.1-3.529-10.156,2.422-3.865,10.059-7.86,14.686-5.386,1.1,2.021-4.109,14.007-1.333,15.153,2.875.409,1.847-8.05,2.786-12.076,1.354-3.952,8.051-2.814,12.2-2.541-3.719,3.829-6.015,7.665-4.464,8.725,4.014,2.1,1.978-7.221,4.464-8.725,6.009.4,7.737-1.914,10.419.314,1.079,4.109,1.468,6.022.319,9.887-2.691,8.333-16,4.967-15.416,7.878,1.607,2.134,10.713-2.453,11.781-1.213,2.6,2.158.756,8.927-2.042,9.952-4.131,1.511-15.29-1.84-15.953.5-.839,2.92,13.684,1.13,15.865,5.9,1.429,4.081-1.556,9.562-4.161,12.865-2.652,5.167-16.037-10.489-17.609-9.107-1.57,5.253,17.462,11.692,10.768,17.228-3.855,2.655-8.518,2.239-13.04,1.567-6.976-1.062-14-7.077-16.813-10.827m31.773-12.21a1.376,1.376,0,0,0-1.95-.208,1.326,1.326,0,1,0,1.95.208m-13.889-10.345c-.456,2.182-2.383-.438-2.373-1.667-.3-1.489-.345-3.708,1.115-4.579,1.751.769,1.747,3.5,1.257,6.245m-8.019,4.748c2.6-1.94-1.113-7.482-2.9-7.383-1.537.589.729,8.22,2.9,7.383m5.536,14.526c.745.965-1.036.838-1.54.4-.72-.417-1.672-1.2-1.509-2.117.946-.463,2.088.516,3.049,1.717m18-21.259c-1.047-.879-2.884-.559-4.067-.067-.164,1.019,1.347,1.148,2.277,1.311,1.009.234,2.266-.406,1.79-1.244" transform="translate(-1187.734 -825.681)" fill="#5197fc" fill-rule="evenodd"/>
              <path id="Path_6953" data-name="Path 6953" d="M1300.882,1056.6a.7.7,0,0,1-.116-.911,222.06,222.06,0,0,1,22.557-28.661,214.478,214.478,0,0,1,30.435-26.939.692.692,0,0,1,.971.156.7.7,0,0,1-.155.977,212.359,212.359,0,0,0-52.651,55.243.693.693,0,0,1-1.04.134" transform="translate(-1136.771 -873.115)" fill="#fff"/>
              <path id="Path_6954" data-name="Path 6954" d="M1596.9,997.888a.7.7,0,0,1-.209-.339,16.372,16.372,0,0,1-.231-8.063,16.89,16.89,0,0,1,3.4-6.761.692.692,0,0,1,.978-.1.7.7,0,0,1,.1.984,14.567,14.567,0,0,0-2.9,13.575.7.7,0,0,1-.488.859.692.692,0,0,1-.645-.152" transform="translate(-1394.966 -857.842)" fill="#fff"/>
              <path id="Path_6955" data-name="Path 6955" d="M1413.24,1062.562l-.03-.028c-6.784-6.821-8.819-15.572-5.883-25.308a.7.7,0,1,1,1.33.406c-2.777,9.211-.863,17.479,5.535,23.911a.7.7,0,0,1,0,.99.691.691,0,0,1-.953.029" transform="translate(-1228.866 -905.221)" fill="#fff"/>
              <path id="Path_6956" data-name="Path 6956" d="M1527.566,1173.254a38.02,38.02,0,0,1-4.7-5.163.7.7,0,0,1,.123-.982.691.691,0,0,1,.975.123c5.53,7.17,10.9,10.179,18.525,10.385a.7.7,0,0,1-.037,1.4,22.537,22.537,0,0,1-11.291-3.09,23.59,23.59,0,0,1-3.6-2.673" transform="translate(-1330.863 -1018.935)" fill="#fff"/>
              <path id="Path_6957" data-name="Path 6957" d="M1430.847,1276.269a23.033,23.033,0,0,1-4.12-4.982.7.7,0,0,1,.214-.966.692.692,0,0,1,.959.215c2.9,4.594,7.914,9.927,21.025,10.392a.7.7,0,0,1-.049,1.4c-9.116-.323-14.522-2.921-18.029-6.058" transform="translate(-1246.868 -1109.087)" fill="#fff"/>
              <path id="Path_6958" data-name="Path 6958" d="M288.58,71.6c-6.905,3.791-23.287,4.915-33.965-.554-3.293-1.654-14.606-7.39-11.123-13.92,4.071-1.687,12.659,3.148,12.2-5.086-1.418-3.917-9.4,4.377-12.691,2.07-4.04-3.723-7.125-13.675-3.233-18.667,2.624-.886,15.623,7.873,17.557,4.805,1.1-3.347-9.086-3.915-13.623-5.884-4.355-2.459-1.6-10.211-.394-15.1,3.711,5.256,7.735,8.811,9.32,7.173,3.319-4.334-8.082-3.882-9.32-7.173,1.732-7.093-.619-9.628,2.57-12.366,5.068-.41,7.4-.467,11.722,1.721,9.229,4.987,2.435,20.147,5.981,20.058,2.861-1.462-.6-13.295,1.076-14.3,3.095-2.654,10.681.994,11.28,4.542.909,5.247-5.395,17.857-2.794,19.137,3.257,1.626,4.236-16.091,10.3-17.674,5.118-.843,10.923,3.88,14.258,7.691,5.526,4.259-15.734,16.909-14.445,19.074,5.853,3,17.46-18.348,22.551-9.19,2.3,5.161.841,10.641-.913,15.9C302.165,61.936,293.6,69.042,288.58,71.6M280.945,31.1a1.691,1.691,0,0,0-.653,2.283,1.662,1.662,0,0,0,2.19.9A1.694,1.694,0,0,0,283.148,32a1.673,1.673,0,0,0-2.2-.9M265.839,45.484c2.464,1-1.036,2.735-2.473,2.472-1.811.036-4.436-.387-5.154-2.3,1.27-1.927,4.485-1.355,7.627-.171m3.876,10.574c-1.721-3.524-9.042-.257-9.3,1.882.359,1.957,9.821.88,9.3-1.882m18.265-3.528c1.3-.681.772,1.417.144,1.919-.631.784-1.756,1.744-2.8,1.35-.337-1.225,1.054-2.375,2.659-3.269M266.787,26.547c-1.259,1.068-1.274,3.324-.941,4.844,1.162.4,1.633-1.367,2.026-2.447.486-1.152-.006-2.783-1.085-2.4" transform="translate(-207.994 -5.82)" fill="#2c7efe" fill-rule="evenodd"/>
              <path id="Path_6959" data-name="Path 6959" d="M393.628,141.032a1.038,1.038,0,0,1-.664-.292A266.464,266.464,0,0,1,364,107.731a260.136,260.136,0,0,1-25.268-42.058,1.056,1.056,0,0,1,.488-1.406,1.043,1.043,0,0,1,1.4.491,255.862,255.862,0,0,0,53.8,74.465,1.058,1.058,0,0,1,.029,1.489,1.039,1.039,0,0,1-.815.322" transform="translate(-295.958 -56.022)" fill="#fff"/>
              <path id="Path_6960" data-name="Path 6960" d="M311.752,181.691a18.72,18.72,0,0,1-6.421-1.507,20.4,20.4,0,0,1-7.314-5.539,1.058,1.058,0,0,1,.108-1.485,1.041,1.041,0,0,1,1.475.108,17.1,17.1,0,0,0,15.193,6.27,1.053,1.053,0,0,1,.185,2.1,21.906,21.906,0,0,1-3.225.055" transform="translate(-260.245 -150.971)" fill="#fff"/>
              <path id="Path_6961" data-name="Path 6961" d="M331.346,426.667a32.881,32.881,0,0,1-13.11-3.772,1.056,1.056,0,0,1-.457-1.416,1.043,1.043,0,0,1,1.407-.46c10.192,5.23,20.256,4.707,29.1-1.515a1.041,1.041,0,0,1,1.456.26,1.058,1.058,0,0,1-.259,1.466,28.188,28.188,0,0,1-18.141,5.437" transform="translate(-277.639 -366.124)" fill="#fff"/>
              <path id="Path_6962" data-name="Path 6962" d="M495.613,194.452a1.045,1.045,0,0,1-.866-.562,1.057,1.057,0,0,1,.439-1.422c9.547-5.05,14.2-10.771,16.05-19.745a1.046,1.046,0,1,1,2.048.429,27.758,27.758,0,0,1-6.084,12.9,36.79,36.79,0,0,1-11.041,8.282,1.037,1.037,0,0,1-.546.119" transform="translate(-432.304 -150.081)" fill="#fff"/>
              <path id="Path_6963" data-name="Path 6963" d="M597.548,309.488a1.054,1.054,0,0,1-.337-2.026c5.976-2.467,13.26-7.28,16.569-22.727a1.046,1.046,0,1,1,2.045.444c-1.6,7.463-4.182,13.141-7.9,17.359a25.653,25.653,0,0,1-9.92,6.873,1.033,1.033,0,0,1-.457.077" transform="translate(-521.396 -247.891)" fill="#fff"/>
              <path id="Path_6964" data-name="Path 6964" d="M1514.138,77.363l-2.284,7.076a.582.582,0,0,1-.552.4h-7.391a.585.585,0,0,0-.341,1.058l5.979,4.373a.588.588,0,0,1,.211.654L1507.476,98a.582.582,0,0,0,.894.654l5.979-4.373a.578.578,0,0,1,.683,0l5.979,4.373A.582.582,0,0,0,1521.9,98l-2.284-7.076a.587.587,0,0,1,.211-.654l5.979-4.373a.585.585,0,0,0-.341-1.058h-7.391a.581.581,0,0,1-.552-.4l-2.284-7.076a.579.579,0,0,0-1.1,0" transform="translate(-1313.914 -67.197)" fill="#fcc070"/>
              <path id="Path_6965" data-name="Path 6965" d="M684.9,181.991H590.243a9.808,9.808,0,0,0-9.724,9.818V376.332a9.8,9.8,0,0,0,9.724,9.789H684.9a9.783,9.783,0,0,0,9.724-9.789V191.809a9.79,9.79,0,0,0-9.724-9.818" transform="translate(-507.375 -158.906)" fill="#4b76ba" fill-rule="evenodd"/>
              <path id="Path_6966" data-name="Path 6966" d="M680.192,181.991h-90.38a9.36,9.36,0,0,0-9.293,9.356V376.765a9.36,9.36,0,0,0,9.293,9.356h90.38a9.36,9.36,0,0,0,9.293-9.356V191.347a9.36,9.36,0,0,0-9.293-9.356" transform="translate(-507.375 -158.906)" fill="#8caedb" fill-rule="evenodd"/>
              <path id="Path_6967" data-name="Path 6967" d="M708.494,229.8H681.3a1.533,1.533,0,0,1,.029.375c0,4.331-3.069,7.883-6.827,7.883h-14.4c-3.757,0-6.826-3.552-6.826-7.883V229.8H626.087c-4.646,0-8.461,4.418-8.461,9.789v173.03c0,5.4,3.815,9.818,8.461,9.818h82.406c4.675,0,8.49-4.418,8.49-9.818V239.585c0-5.371-3.815-9.789-8.49-9.789" transform="translate(-539.807 -200.647)" fill="#fff" fill-rule="evenodd"/>
              <path id="Path_6968" data-name="Path 6968" d="M1072.262,229.8h-1.893a1.093,1.093,0,0,0-1.09,1.1v2.512a1.093,1.093,0,0,0,1.09,1.1h1.893a1.093,1.093,0,0,0,1.09-1.1v-2.512a1.093,1.093,0,0,0-1.09-1.1" transform="translate(-934.553 -200.647)" fill="#4b76ba" fill-rule="evenodd"/>
              <path id="Path_6969" data-name="Path 6969" d="M925.2,229.8h-1.893a1.093,1.093,0,0,0-1.09,1.1v2.512a1.093,1.093,0,0,0,1.09,1.1H925.2a1.093,1.093,0,0,0,1.09-1.1v-2.512a1.093,1.093,0,0,0-1.09-1.1" transform="translate(-806.022 -200.647)" fill="#4b76ba" fill-rule="evenodd"/>
              <path id="Path_6970" data-name="Path 6970" d="M977.333,235.943H968.1a1.032,1.032,0,0,0-1.033,1.04v1.069a1.032,1.032,0,0,0,1.033,1.039h9.236a1.032,1.032,0,0,0,1.033-1.039v-1.069a1.032,1.032,0,0,0-1.033-1.04" transform="translate(-845.217 -206.014)" fill="#4b76ba" fill-rule="evenodd"/>
              <path id="Path_6971" data-name="Path 6971" d="M617.626,252.927h99.358V239.586c0-5.371-3.815-9.789-8.49-9.789H681.3a1.533,1.533,0,0,1,.029.375c0,4.332-3.069,7.883-6.827,7.883h-14.4c-3.758,0-6.826-3.552-6.826-7.883V229.8H626.087c-4.646,0-8.461,4.418-8.461,9.789Z" transform="translate(-539.807 -200.648)" fill="#4b76ba" fill-rule="evenodd"/>
              <path id="Path_6972" data-name="Path 6972" d="M716.988,1577.973v11.8c0,5.4-3.814,9.818-8.49,9.818H626.093c-4.647,0-8.461-4.418-8.461-9.818v-11.8Z" transform="translate(-539.812 -1377.809)" fill="#4b76ba" fill-rule="evenodd"/>
              <path id="Path_6973" data-name="Path 6973" d="M970.527,1645.911a5.992,5.992,0,1,1,5.938-5.978,5.994,5.994,0,0,1-5.937,5.978" transform="translate(-843.029 -1426.665)" fill="#fff" fill-rule="evenodd"/>
              <path id="Path_6974" data-name="Path 6974" d="M834.048,1224.014l-1.354,2.447-14.351,25.932-3.359,6.069-.1.174.05.07h-14.17c-.009-.08-.016-.161-.024-.244-.29-3.274.515-7.639,3.176-14.257l5.514-16.832,17.671-15.33,4.688,8.084Z" transform="translate(-699.804 -1058.297)" fill="#071c3e" fill-rule="evenodd"/>
              <path id="Path_6975" data-name="Path 6975" d="M951.117,1288.2c-.025.081-.049.162-.074.243H935.5l.025-.243.643-6.068,2.264-21.38,1.552-14.648c3.072,1.265,6.351,2.513,9.635,3.763,3.339,1.27,6.684,2.541,9.824,3.826,1.54,9.431-4.657,22.512-8.328,34.508" transform="translate(-817.631 -1088.037)" fill="#1a3763" fill-rule="evenodd"/>
              <path id="Path_6976" data-name="Path 6976" d="M1293.828,439.827l-1.5-3.233c-.647-1.956-1.269-3.911-1.917-5.866-1.45-3.7.932-.261,2.667,2.008,2.926-2.19,4.04-7.639,6.526-7.8,2.175.183.673,4.8.285,5.71-1.683,4.563-2.59,4.8-5.05,6.909Z" transform="translate(-1127.429 -371.036)" fill="#ffcdad" fill-rule="evenodd"/>
              <path id="Path_6977" data-name="Path 6977" d="M728.133,431.765l2.046-2.894c1.01-1.8,1.994-3.6,3-5.4,2.124-3.363-.854-.443-3,1.46-2.46-2.686-2.538-8.265-4.946-8.891-2.175-.235-1.554,4.589-1.373,5.58.8,4.8,1.657,5.189,3.677,7.717Z" transform="translate(-632.461 -363.261)" fill="#ffcdad" fill-rule="evenodd"/>
              <path id="Path_6978" data-name="Path 6978" d="M776.816,560.6c-13.622-12.958-22.816-37.258-24.577-51.39-1.761.443-3.5.887-5.257,1.33,1.321,17.234,7.459,44.141,24.448,71.336,1.787-7.092,3.6-14.184,5.387-21.276" transform="translate(-652.864 -444.618)" fill="#62cbec" fill-rule="evenodd"/>
              <path id="Path_6979" data-name="Path 6979" d="M941.115,604.981c-2.517-2.929-2.255-11.024,1.9-12.373,2.092-.691-2.321-10.793,16.441-8.358,7.714,1.02,1.438,10.4,10.165,14.874,17.389,8.951,4.674,17.21,6.014,26.095,1.536,9.938-10.2,8.424-15.657,12.208-6.6,4.541-17.16-.033-15.656-10.135,1.242-8.556-.1-14.15-3.2-22.311" transform="translate(-821.122 -509.809)" fill="#060352" fill-rule="evenodd"/>
              <path id="Path_6980" data-name="Path 6980" d="M890.92,873.64l-6.889,2.5c-1.891,1.512-4.558,2.842-5,7.692L870.1,931.9c10.722,10.377,22.783-3.707,32.184-3.42,1.45-9,2.7-33.665-2.764-47.562-1.761-5.084-5.594-5.814-8.6-7.274" transform="translate(-760.468 -762.82)" fill="#62cbec" fill-rule="evenodd"/>
              <path id="Path_6981" data-name="Path 6981" d="M981.15,848.563l7.1.913-.673,5.241c-2.668-.313-10.2,5.945-8-.991Z" transform="translate(-855.799 -740.924)" fill="#f8a780" fill-rule="evenodd"/>
              <path id="Path_6982" data-name="Path 6982" d="M987.1,720.417l-14.27-7.718c-3.911,5.371-7.225,17.417-2.952,18.694,9.66,2.086,12.094-.808,17.222-10.977" transform="translate(-845.923 -622.294)" fill="#ffcdad" fill-rule="evenodd"/>
              <path id="Path_6983" data-name="Path 6983" d="M990.211,697.972c-.388.313-1.295,6.231,3.911,3.963,2.667-1.173,1.269,2.816,5.231,3.389,3.911.6,3.5,2.711,2.771,6.492-1.683,8.63,7.458,4.432,8.106,3.546,2.745-3.781,4.377-7.874.7-11.707-.466-.5-9.09-4.041-11.318-5.475-3.5-2.242-5.775-3.442-9.22-.417Z" transform="translate(-865.171 -607.671)" fill="#060352" fill-rule="evenodd"/>
              <path id="Path_6984" data-name="Path 6984" d="M1070.5,787.522c.57-.991,1.114-1.955,1.684-2.946,1.605-2.242,3.5-.886,2.357.86-1.606,2.32-2.279,1.512-4.04,2.086" transform="translate(-935.624 -684.029)" fill="#ffcdad" fill-rule="evenodd"/>
              <path id="Path_6985" data-name="Path 6985" d="M1074.2,560.163c14.5-11.967,25.38-35.537,28.125-49.512,1.709.574,3.444,1.121,5.154,1.695-2.512,17.078-10.54,43.516-29.394,69.406q-1.942-10.794-3.885-21.588" transform="translate(-938.858 -445.876)" fill="#62cbec" fill-rule="evenodd"/>
              <path id="Path_6986" data-name="Path 6986" d="M986.209,818.312c-.647,2.164-2.46,3.416-4.221,2.79a4.4,4.4,0,0,1-2.538-3.78,5.387,5.387,0,0,0,2.46,1.825,4.02,4.02,0,0,0,4.3-.834" transform="translate(-856.042 -713.645)" fill="#fff"/>
              <path id="Path_6987" data-name="Path 6987" d="M462.384,971.971h36.587c.09-35.327-24.643-3.792-36.587,0" transform="translate(-404.125 -834.202)" fill="#84b2fe" fill-rule="evenodd"/>
              <path id="Path_6988" data-name="Path 6988" d="M287.269,971.971H250.681c-.09-35.327,24.643-3.792,36.587,0" transform="translate(-219.096 -834.202)" fill="#dfe6ff" fill-rule="evenodd"/>
              <rect id="Rectangle_3702" data-name="Rectangle 3702" width="90.477" height="91.091" transform="translate(17.977 137.769)" fill="#2c7efe"/>
              <rect id="Rectangle_3703" data-name="Rectangle 3703" width="99.614" height="3.964" transform="translate(13.409 170.141)" fill="#045bb2"/>
              <rect id="Rectangle_3704" data-name="Rectangle 3704" width="99.613" height="33.579" transform="translate(13.41 137.769)" fill="#2c7efe"/>
              <rect id="Rectangle_3705" data-name="Rectangle 3705" width="22.823" height="33.579" transform="translate(90.2 137.769)" fill="#045bb2"/>
              <rect id="Rectangle_3706" data-name="Rectangle 3706" width="18.254" height="67.03" transform="translate(90.2 161.83)" fill="#045bb2"/>
              <rect id="Rectangle_3707" data-name="Rectangle 3707" width="9.952" height="91.092" transform="translate(75.652 137.768)" fill="#fff"/>
              <rect id="Rectangle_3708" data-name="Rectangle 3708" width="9.952" height="91.092" transform="translate(40.828 137.768)" fill="#fff"/>
              <path id="Path_6989" data-name="Path 6989" d="M1325.065,1742.657a.782.782,0,0,1,.014.177c0,2.764-10.008,5-22.342,5s-22.355-2.233-22.355-5a.811.811,0,0,1,.027-.177v-5.637c12.131.109,10.373,3.063,22.437,3.063s10.724-2.614,22.22-3.063Z" transform="translate(-1119.057 -1516.681)" fill="#f9ce0d" fill-rule="evenodd"/>
              <path id="Path_6990" data-name="Path 6990" d="M1511.658,1742.657a.775.775,0,0,1,.014.177c0,2.41-7.641,4.425-17.8,4.888v-7.788c7.506-.558,7.939-2.533,17.784-2.914Z" transform="translate(-1305.65 -1516.681)" fill="#f19d21" fill-rule="evenodd"/>
              <path id="Path_6991" data-name="Path 6991" d="M1302.737,1706.212c12.307,0,22.342-2.246,22.342-5s-10.035-4.983-22.342-4.983-22.355,2.233-22.355,4.983,10.048,5,22.355,5" transform="translate(-1119.057 -1481.067)" fill="#faec16" fill-rule="evenodd"/>
              <path id="Path_6992" data-name="Path 6992" d="M1313.15,1712.059c11.482,0,20.841-1.8,20.841-4s-9.359-3.989-20.841-3.989-20.854,1.8-20.854,3.989,9.372,4,20.854,4" transform="translate(-1129.469 -1487.908)" fill="#f9ce0d" fill-rule="evenodd"/>
              <path id="Path_6993" data-name="Path 6993" d="M1322.438,1717.187c10.752,0,19.515-1.4,19.515-3.131s-8.764-3.118-19.515-3.118-19.515,1.4-19.515,3.118,8.763,3.131,19.515,3.131" transform="translate(-1138.758 -1493.907)" fill="#faec16" fill-rule="evenodd"/>
              <path id="Path_6994" data-name="Path 6994" d="M1413.089,1720.2c0,.191-.2.368-.609.518a8.828,8.828,0,0,1-1.717.395c-.744.1-1.623.177-2.637.231-.392.014-.8.041-1.2.055v.191c0,.041-.2.082-.446.082h-1.839c-.243,0-.447-.041-.447-.082v-.163c-.568,0-1.1-.014-1.623-.027-.676-.027-1.3-.055-1.839-.082s-1-.068-1.379-.109a5.765,5.765,0,0,1-.825-.1,1.163,1.163,0,0,1-.379-.109.246.246,0,0,1-.122-.218.231.231,0,0,1,.041-.136l.122-.082a.614.614,0,0,1,.2-.054,1.907,1.907,0,0,1,.3-.014c.162,0,.419.027.757.054s.771.082,1.258.136,1.082.082,1.758.122,1.461.055,2.34.055q.994,0,1.785-.041c.541-.027,1-.054,1.393-.109a4.442,4.442,0,0,0,.92-.191c.2-.082.311-.163.311-.272s-.149-.2-.46-.272a10.839,10.839,0,0,0-1.2-.2c-.514-.054-1.082-.1-1.7-.15s-1.285-.082-1.948-.136-1.325-.1-1.961-.163-1.2-.136-1.7-.218a7.092,7.092,0,0,1-1.217-.313c-.3-.122-.46-.272-.46-.449,0-.15.162-.286.487-.422a7.082,7.082,0,0,1,1.447-.368c.663-.1,1.474-.191,2.434-.245.392-.027.825-.054,1.271-.068v-.218c0-.041.2-.082.447-.082h1.839c.243,0,.446.041.446.082v.191c.365.014.73.014,1.1.027.568.014,1.082.041,1.542.068s.852.054,1.163.082.582.054.744.082a1.551,1.551,0,0,1,.324.068.252.252,0,0,1,.122.054.358.358,0,0,1,.081.068.4.4,0,0,1,.027.123.329.329,0,0,1-.027.122.2.2,0,0,1-.122.082.89.89,0,0,1-.2.055,1.636,1.636,0,0,1-.257.014c-.149,0-.352-.014-.622-.041s-.622-.068-1.041-.109-.933-.068-1.5-.1-1.244-.054-1.988-.054q-.994,0-1.745.041a11.224,11.224,0,0,0-1.244.122,3.094,3.094,0,0,0-.744.163c-.162.068-.243.15-.243.231,0,.109.162.2.473.272a10.969,10.969,0,0,0,1.23.2c.5.055,1.082.1,1.731.15s1.3.1,1.961.136l1.988.163c.662.054,1.244.136,1.745.218a7.225,7.225,0,0,1,1.217.3c.3.122.46.272.46.436" transform="translate(-1221.876 -1499.156)" fill="#ec8123" fill-rule="evenodd"/>
              <path id="Path_6995" data-name="Path 6995" d="M1358,1681.8a.8.8,0,0,1,.027.191c0,2.75-10.008,4.983-22.355,4.983s-22.342-2.233-22.342-4.983a.834.834,0,0,1,.014-.191v-5.637c12.131.109,10.387,3.064,22.45,3.064s10.711-2.615,22.207-3.064Z" transform="translate(-1147.857 -1463.542)" fill="#f9ce0d" fill-rule="evenodd"/>
              <path id="Path_6996" data-name="Path 6996" d="M1544.6,1681.8a.8.8,0,0,1,.027.191c0,2.4-7.641,4.411-17.8,4.888v-7.8c7.492-.558,7.925-2.533,17.771-2.914Z" transform="translate(-1334.45 -1463.542)" fill="#f19d21" fill-rule="evenodd"/>
              <path id="Path_6997" data-name="Path 6997" d="M1335.675,1645.352c12.307,0,22.355-2.247,22.355-5s-10.049-4.983-22.355-4.983-22.342,2.247-22.342,4.983,10.035,5,22.342,5" transform="translate(-1147.857 -1427.927)" fill="#faec16" fill-rule="evenodd"/>
              <path id="Path_6998" data-name="Path 6998" d="M1346.09,1651.2c11.482,0,20.854-1.8,20.854-4s-9.372-3.989-20.854-3.989-20.841,1.8-20.841,3.989,9.359,4,20.841,4" transform="translate(-1158.271 -1434.768)" fill="#f9ce0d" fill-rule="evenodd"/>
              <path id="Path_6999" data-name="Path 6999" d="M1355.283,1656.327c10.752,0,19.529-1.4,19.529-3.132s-8.777-3.118-19.529-3.118-19.515,1.4-19.515,3.118,8.764,3.132,19.515,3.132" transform="translate(-1167.465 -1440.767)" fill="#faec16" fill-rule="evenodd"/>
              <path id="Path_7000" data-name="Path 7000" d="M1445.934,1659.342c0,.191-.2.367-.6.517a8.809,8.809,0,0,1-1.717.395c-.744.1-1.623.177-2.651.231-.379.027-.785.041-1.2.055v.191c0,.041-.189.082-.446.082h-1.839c-.243,0-.446-.041-.446-.082v-.163c-.554,0-1.1-.014-1.609-.027-.69-.027-1.3-.055-1.853-.082s-1-.068-1.379-.1-.649-.068-.825-.1a.947.947,0,0,1-.379-.122.24.24,0,0,1-.122-.2.209.209,0,0,1,.054-.136.367.367,0,0,1,.108-.1.727.727,0,0,1,.2-.054c.095,0,.189-.014.3-.014a7.331,7.331,0,0,1,.771.068q.507.041,1.258.123c.487.041,1.082.082,1.758.123s1.447.054,2.326.054c.662,0,1.258-.014,1.8-.041s1-.054,1.393-.109a4.468,4.468,0,0,0,.906-.191c.216-.081.325-.163.325-.272s-.162-.2-.46-.272a8.886,8.886,0,0,0-1.217-.191c-.5-.068-1.068-.109-1.7-.163s-1.271-.082-1.948-.136-1.312-.1-1.947-.163-1.2-.136-1.718-.218a6.573,6.573,0,0,1-1.2-.313c-.311-.122-.46-.272-.46-.449,0-.136.162-.286.487-.422a6.615,6.615,0,0,1,1.447-.367q.974-.143,2.434-.245c.392-.027.812-.041,1.258-.068v-.218c0-.041.2-.082.446-.082h1.839c.257,0,.446.041.446.082v.191c.365.014.744.014,1.109.027.568.014,1.068.041,1.528.068s.852.055,1.177.082.568.054.73.082a1.547,1.547,0,0,1,.338.068.258.258,0,0,1,.122.055c.027.014.041.041.068.082a.147.147,0,0,1,.027.109c0,.055,0,.1-.027.122a.2.2,0,0,1-.122.082.723.723,0,0,1-.2.055,1.538,1.538,0,0,1-.257.014c-.149,0-.352-.014-.622-.041s-.609-.068-1.042-.109-.933-.068-1.5-.1-1.231-.054-1.975-.054c-.663,0-1.258.013-1.758.041a11.574,11.574,0,0,0-1.244.122,2.861,2.861,0,0,0-.73.177c-.162.068-.244.136-.244.218,0,.109.149.2.474.272a8.591,8.591,0,0,0,1.217.2c.514.055,1.082.109,1.731.15s1.3.1,1.974.136l1.988.163c.649.068,1.231.136,1.731.218a5.566,5.566,0,0,1,1.217.313c.311.109.46.259.46.422" transform="translate(-1250.583 -1446.015)" fill="#ec8123" fill-rule="evenodd"/>
              <path id="Path_7001" data-name="Path 7001" d="M1327.521,1614.5a.922.922,0,0,1,.027.191c0,2.75-10.008,4.983-22.355,4.983s-22.342-2.233-22.342-4.983a.91.91,0,0,1,.013-.191v-5.637c12.131.109,10.386,3.063,22.45,3.063s10.711-2.614,22.207-3.063Z" transform="translate(-1121.215 -1404.778)" fill="#f9ce0d" fill-rule="evenodd"/>
              <path id="Path_7002" data-name="Path 7002" d="M1514.114,1614.5a.914.914,0,0,1,.027.191c0,2.41-7.641,4.411-17.8,4.888v-7.8c7.506-.558,7.925-2.532,17.771-2.914Z" transform="translate(-1307.808 -1404.778)" fill="#f19d21" fill-rule="evenodd"/>
              <path id="Path_7003" data-name="Path 7003" d="M1305.193,1578.052c12.307,0,22.355-2.246,22.355-4.983s-10.048-5-22.355-5-22.342,2.247-22.342,5,10.035,4.983,22.342,4.983" transform="translate(-1121.215 -1369.164)" fill="#faec16" fill-rule="evenodd"/>
              <path id="Path_7004" data-name="Path 7004" d="M1315.606,1583.9c11.482,0,20.854-1.8,20.854-3.989s-9.372-4-20.854-4-20.841,1.8-20.841,4,9.359,3.989,20.841,3.989" transform="translate(-1131.628 -1376.005)" fill="#f9ce0d" fill-rule="evenodd"/>
              <path id="Path_7005" data-name="Path 7005" d="M1324.8,1589.026c10.752,0,19.529-1.4,19.529-3.118s-8.777-3.132-19.529-3.132-19.516,1.4-19.516,3.132,8.764,3.118,19.516,3.118" transform="translate(-1140.822 -1382.003)" fill="#faec16" fill-rule="evenodd"/>
              <path id="Path_7006" data-name="Path 7006" d="M1415.45,1592.041c0,.191-.2.368-.6.517a7.893,7.893,0,0,1-1.718.395c-.744.1-1.623.177-2.651.232-.379.027-.784.041-1.2.055v.19c0,.041-.189.082-.433.082H1407c-.244,0-.446-.041-.446-.082v-.163c-.554,0-1.1-.014-1.609-.027-.69-.027-1.3-.055-1.853-.082s-1-.068-1.38-.1-.649-.068-.825-.1a.951.951,0,0,1-.379-.122.241.241,0,0,1-.122-.2.21.21,0,0,1,.054-.136.371.371,0,0,1,.108-.1.72.72,0,0,1,.2-.054c.095,0,.189-.014.3-.014a7.321,7.321,0,0,1,.771.068c.338.027.757.082,1.258.122s1.082.082,1.758.123,1.447.054,2.326.054c.663,0,1.258-.014,1.8-.041a12.358,12.358,0,0,0,1.393-.109,4.861,4.861,0,0,0,.92-.191c.2-.082.311-.163.311-.272s-.162-.2-.46-.272a11.644,11.644,0,0,0-1.217-.191c-.5-.068-1.068-.109-1.7-.15s-1.271-.1-1.948-.15-1.312-.1-1.948-.163-1.2-.136-1.717-.218a6.572,6.572,0,0,1-1.2-.313c-.311-.122-.46-.272-.46-.436s.162-.3.487-.436a6.637,6.637,0,0,1,1.447-.368q.974-.143,2.434-.245c.392-.027.812-.041,1.258-.054v-.231c0-.041.2-.082.446-.082h1.853c.244,0,.433.041.433.082v.19c.365.014.744.014,1.109.027.568.014,1.068.041,1.528.068s.852.054,1.177.082.568.068.73.082.284.054.338.068a.254.254,0,0,1,.121.055.421.421,0,0,1,.068.082.155.155,0,0,1,.041.109.167.167,0,0,1-.041.122.3.3,0,0,1-.122.1q-.081.021-.2.041a1.552,1.552,0,0,1-.257.014c-.149,0-.352-.014-.622-.041s-.609-.068-1.041-.109-.92-.068-1.5-.1-1.231-.041-1.974-.041c-.662,0-1.258.014-1.758.041a9.188,9.188,0,0,0-1.244.109,3.023,3.023,0,0,0-.73.177c-.162.068-.243.136-.243.218,0,.109.162.2.473.272a8.516,8.516,0,0,0,1.231.2c.5.055,1.082.109,1.717.15s1.3.1,1.975.136,1.325.109,1.988.163,1.231.136,1.731.218a5.568,5.568,0,0,1,1.217.313c.311.109.46.259.46.422" transform="translate(-1223.939 -1387.251)" fill="#ec8123" fill-rule="evenodd"/>
              <path id="Path_7007" data-name="Path 7007" d="M1324.408,1543.547a.8.8,0,0,1,.027.19c0,2.75-10.008,4.983-22.355,4.983s-22.342-2.233-22.342-4.983a.846.846,0,0,1,.013-.19v-5.637c12.131.109,10.387,3.064,22.45,3.064s10.711-2.614,22.207-3.064Z" transform="translate(-1118.495 -1342.828)" fill="#f9ce0d" fill-rule="evenodd"/>
              <path id="Path_7008" data-name="Path 7008" d="M1511,1543.547a.81.81,0,0,1,.027.19c0,2.4-7.641,4.411-17.8,4.888v-7.8c7.492-.558,7.925-2.533,17.771-2.914Z" transform="translate(-1305.087 -1342.828)" fill="#f19d21" fill-rule="evenodd"/>
              <path id="Path_7009" data-name="Path 7009" d="M1302.079,1507.1c12.307,0,22.355-2.247,22.355-5s-10.049-4.983-22.355-4.983-22.342,2.246-22.342,4.983,10.035,5,22.342,5" transform="translate(-1118.494 -1307.214)" fill="#faec16" fill-rule="evenodd"/>
              <path id="Path_7010" data-name="Path 7010" d="M1312.493,1512.949c11.482,0,20.854-1.8,20.854-4s-9.372-3.989-20.854-3.989-20.841,1.8-20.841,3.989,9.359,4,20.841,4" transform="translate(-1128.907 -1314.055)" fill="#f9ce0d" fill-rule="evenodd"/>
              <path id="Path_7011" data-name="Path 7011" d="M1321.686,1518.077c10.752,0,19.529-1.4,19.529-3.132s-8.777-3.118-19.529-3.118-19.515,1.4-19.515,3.118,8.764,3.132,19.515,3.132" transform="translate(-1138.101 -1320.054)" fill="#faec16" fill-rule="evenodd"/>
              <path id="Path_7012" data-name="Path 7012" d="M1412.337,1521.092c0,.19-.2.367-.6.517a8.807,8.807,0,0,1-1.717.395c-.744.1-1.623.177-2.651.232-.379.027-.784.041-1.2.054v.191c0,.041-.189.082-.446.082h-1.839c-.244,0-.446-.041-.446-.082v-.163c-.554,0-1.1-.014-1.609-.027-.69-.027-1.3-.054-1.853-.082s-1-.068-1.379-.1-.649-.068-.825-.1a.947.947,0,0,1-.379-.123.24.24,0,0,1-.122-.2.21.21,0,0,1,.054-.136.371.371,0,0,1,.108-.1.73.73,0,0,1,.2-.054c.094,0,.189-.014.3-.014a7.38,7.38,0,0,1,.771.068q.507.041,1.258.123c.487.041,1.082.082,1.758.122s1.447.054,2.326.054c.663,0,1.258-.014,1.8-.041s1-.054,1.393-.109a4.489,4.489,0,0,0,.906-.191c.216-.082.325-.163.325-.272s-.162-.2-.46-.272a8.913,8.913,0,0,0-1.217-.191c-.5-.068-1.068-.109-1.7-.163s-1.271-.082-1.948-.136-1.312-.1-1.947-.163-1.2-.136-1.718-.218a6.6,6.6,0,0,1-1.2-.313c-.311-.123-.46-.272-.46-.449,0-.136.162-.286.487-.422a6.619,6.619,0,0,1,1.447-.368q.974-.143,2.434-.245c.392-.027.812-.041,1.258-.068v-.218c0-.041.2-.082.446-.082h1.839c.257,0,.446.041.446.082v.191c.365.014.744.014,1.109.027.568.013,1.068.041,1.528.068s.852.054,1.177.082.568.054.73.082a3.4,3.4,0,0,1,.338.068.254.254,0,0,1,.122.054c.027.014.041.041.068.082a.155.155,0,0,1,.041.109.167.167,0,0,1-.041.123.2.2,0,0,1-.122.082.722.722,0,0,1-.2.055,1.552,1.552,0,0,1-.257.014c-.149,0-.352-.014-.622-.041s-.609-.068-1.041-.109-.92-.068-1.5-.1-1.231-.054-1.975-.054c-.663,0-1.258.013-1.758.041a11.567,11.567,0,0,0-1.244.123,3.023,3.023,0,0,0-.73.177c-.162.068-.244.136-.244.218,0,.109.149.2.474.272a8.513,8.513,0,0,0,1.231.2c.5.055,1.082.109,1.718.15s1.3.1,1.974.136l1.988.163c.649.068,1.231.136,1.731.218a5.58,5.58,0,0,1,1.217.313c.311.109.46.259.46.422" transform="translate(-1221.219 -1325.302)" fill="#ec8123" fill-rule="evenodd"/>
              <path id="Path_7013" data-name="Path 7013" d="M1357.36,1482.687a.906.906,0,0,1,.014.191c0,2.75-10.008,4.983-22.342,4.983s-22.342-2.233-22.342-4.983a.914.914,0,0,1,.013-.191v-5.637c12.131.109,10.373,3.064,22.437,3.064s10.725-2.614,22.22-3.064Z" transform="translate(-1147.295 -1289.688)" fill="#f9ce0d" fill-rule="evenodd"/>
              <path id="Path_7014" data-name="Path 7014" d="M1543.859,1482.687a.906.906,0,0,1,.014.191c0,2.41-7.628,4.411-17.8,4.888v-7.8c7.506-.558,7.939-2.533,17.784-2.914Z" transform="translate(-1333.794 -1289.688)" fill="#f19d21" fill-rule="evenodd"/>
              <path id="Path_7015" data-name="Path 7015" d="M1335.032,1446.242c12.307,0,22.342-2.246,22.342-4.983s-10.035-5-22.342-5-22.342,2.247-22.342,5,10.035,4.983,22.342,4.983" transform="translate(-1147.295 -1254.074)" fill="#faec16" fill-rule="evenodd"/>
              <path id="Path_7016" data-name="Path 7016" d="M1345.445,1452.089c11.482,0,20.841-1.8,20.841-3.99s-9.359-4-20.841-4-20.841,1.8-20.841,4,9.359,3.99,20.841,3.99" transform="translate(-1157.707 -1260.915)" fill="#f9ce0d" fill-rule="evenodd"/>
              <path id="Path_7017" data-name="Path 7017" d="M1354.639,1457.217c10.752,0,19.515-1.4,19.515-3.118s-8.764-3.132-19.515-3.132-19.515,1.4-19.515,3.132,8.764,3.118,19.515,3.118" transform="translate(-1166.901 -1266.914)" fill="#faec16" fill-rule="evenodd"/>
              <path id="Path_7018" data-name="Path 7018" d="M1445.29,1460.232c0,.191-.2.368-.609.518a7.959,7.959,0,0,1-1.7.395c-.744.1-1.623.177-2.651.231-.392.027-.784.041-1.2.054v.191c0,.041-.2.082-.446.082h-1.839c-.243,0-.446-.041-.446-.082v-.163c-.555,0-1.1-.013-1.61-.027-.69-.027-1.312-.054-1.853-.082s-1-.068-1.379-.1-.663-.068-.825-.1a.877.877,0,0,1-.379-.123.24.24,0,0,1-.122-.2.2.2,0,0,1,.041-.136.756.756,0,0,1,.122-.1.618.618,0,0,1,.2-.054c.081,0,.176-.013.3-.013.162,0,.419.027.771.068s.757.082,1.244.123,1.082.082,1.758.123,1.461.055,2.34.055q.994,0,1.785-.041a12.961,12.961,0,0,0,1.406-.109,4.478,4.478,0,0,0,.906-.191c.216-.082.311-.163.311-.272s-.149-.2-.46-.272a10.779,10.779,0,0,0-1.2-.191c-.514-.068-1.082-.109-1.7-.15s-1.285-.1-1.948-.15-1.312-.1-1.961-.163-1.2-.136-1.7-.218a7.092,7.092,0,0,1-1.217-.313c-.3-.123-.46-.272-.46-.436s.162-.3.487-.436a7.017,7.017,0,0,1,1.46-.368c.649-.1,1.461-.177,2.421-.245.392-.027.825-.041,1.271-.055v-.231c0-.041.2-.082.446-.082h1.839c.244,0,.446.041.446.082v.19c.365.014.73.014,1.109.027.554.013,1.068.041,1.528.068s.852.054,1.177.082.568.068.73.082.271.055.325.068.108.027.122.055a.466.466,0,0,1,.081.082.259.259,0,0,1,.027.109.276.276,0,0,1-.027.123.3.3,0,0,1-.122.1q-.081.02-.2.041a1.666,1.666,0,0,1-.257.013c-.149,0-.352-.013-.622-.041s-.622-.068-1.041-.109-.933-.068-1.5-.1-1.244-.041-1.988-.041c-.663,0-1.244,0-1.745.041a8.979,8.979,0,0,0-1.244.109,2.857,2.857,0,0,0-.73.177c-.176.068-.257.136-.257.218,0,.109.162.2.473.272a8.846,8.846,0,0,0,1.23.2c.5.055,1.082.109,1.731.15s1.3.1,1.961.136,1.339.109,1.988.163,1.244.136,1.745.218a6.018,6.018,0,0,1,1.217.313c.311.109.46.259.46.422" transform="translate(-1250.019 -1272.162)" fill="#ec8123" fill-rule="evenodd"/>
              <path id="Path_7019" data-name="Path 7019" d="M1326.877,1415.386a.914.914,0,0,1,.013.191c0,2.75-9.994,4.983-22.342,4.983s-22.342-2.233-22.342-4.983a.906.906,0,0,1,.014-.191v-5.637c12.131.109,10.373,3.064,22.436,3.064s10.725-2.614,22.22-3.064Z" transform="translate(-1120.652 -1230.924)" fill="#f9ce0d" fill-rule="evenodd"/>
              <path id="Path_7020" data-name="Path 7020" d="M1513.376,1415.386a.914.914,0,0,1,.013.191c0,2.41-7.627,4.411-17.8,4.888v-7.8c7.506-.558,7.939-2.533,17.784-2.914Z" transform="translate(-1307.151 -1230.924)" fill="#f19d21" fill-rule="evenodd"/>
              <path id="Path_7021" data-name="Path 7021" d="M1304.548,1378.942c12.307,0,22.342-2.233,22.342-4.983s-10.035-5-22.342-5-22.342,2.246-22.342,5,10.035,4.983,22.342,4.983" transform="translate(-1120.652 -1195.311)" fill="#faec16" fill-rule="evenodd"/>
              <path id="Path_7022" data-name="Path 7022" d="M1314.962,1384.789c11.482,0,20.841-1.8,20.841-3.989s-9.359-4-20.841-4-20.841,1.8-20.841,4,9.359,3.989,20.841,3.989" transform="translate(-1131.065 -1202.152)" fill="#f9ce0d" fill-rule="evenodd"/>
              <path id="Path_7023" data-name="Path 7023" d="M1324.156,1389.917c10.751,0,19.515-1.4,19.515-3.118s-8.764-3.132-19.515-3.132-19.515,1.4-19.515,3.132,8.764,3.118,19.515,3.118" transform="translate(-1140.259 -1208.151)" fill="#faec16" fill-rule="evenodd"/>
              <path id="Path_7024" data-name="Path 7024" d="M1414.806,1393.026q0,.286-.609.531a8.8,8.8,0,0,1-1.7.381c-.744.109-1.623.177-2.651.232-.392.027-.784.041-1.2.055v.19c0,.041-.2.082-.446.082h-1.839c-.243,0-.446-.041-.446-.082v-.163c-.554,0-1.1-.014-1.609-.027-.69-.014-1.3-.041-1.853-.082s-1-.068-1.379-.1-.649-.068-.825-.1a.877.877,0,0,1-.379-.123.24.24,0,0,1-.122-.2.158.158,0,0,1,.054-.136.366.366,0,0,1,.108-.1.663.663,0,0,1,.2-.041,2,2,0,0,1,.3-.014,6.8,6.8,0,0,1,.771.054c.338.041.757.082,1.244.122s1.082.082,1.758.123,1.461.054,2.34.054c.663,0,1.258-.014,1.785-.027s1-.068,1.406-.123a3.7,3.7,0,0,0,.906-.191c.216-.068.311-.163.311-.272s-.149-.2-.46-.272a10.794,10.794,0,0,0-1.2-.191c-.514-.054-1.082-.109-1.7-.15s-1.271-.1-1.948-.136-1.312-.109-1.961-.177-1.19-.123-1.7-.218a6.034,6.034,0,0,1-1.217-.313c-.3-.123-.46-.272-.46-.436s.162-.3.487-.436a6.347,6.347,0,0,1,1.461-.354c.649-.109,1.461-.191,2.421-.259.406-.027.825-.041,1.271-.055v-.231c0-.041.2-.068.446-.068h1.839c.243,0,.446.027.446.068v.2c.365,0,.73,0,1.109.014.554.027,1.068.041,1.528.068s.852.054,1.177.082.568.068.73.1a1.9,1.9,0,0,1,.325.055.25.25,0,0,1,.122.054l.081.082a.147.147,0,0,1,.027.109c0,.055,0,.1-.027.123a.3.3,0,0,1-.122.1.767.767,0,0,1-.2.041,1.633,1.633,0,0,1-.257.014c-.149,0-.352-.014-.622-.041s-.622-.068-1.042-.1-.933-.082-1.5-.109-1.244-.041-1.988-.041c-.649,0-1.244.014-1.745.041a11.855,11.855,0,0,0-1.244.109,3.584,3.584,0,0,0-.73.177c-.176.068-.257.136-.257.218,0,.109.162.2.474.272a9.273,9.273,0,0,0,1.23.2c.5.054,1.082.109,1.731.15s1.3.1,1.975.136l1.974.163c.662.068,1.244.136,1.745.218a7.1,7.1,0,0,1,1.217.313c.311.123.46.259.46.422" transform="translate(-1223.377 -1213.493)" fill="#ec8123" fill-rule="evenodd"/>
              <path id="Path_7025" data-name="Path 7025" d="M1521.635,1538.447l.3,4.956,4.923.313-4.923.3-.3,4.956-.3-4.956-4.923-.3,4.923-.313Z" transform="translate(-1325.351 -1343.297)" fill="#fff" fill-rule="evenodd"/>
              <path id="Path_7026" data-name="Path 7026" d="M1364.508,1702.35l.3,4.956,4.923.3-4.923.3-.3,4.956-.311-4.956-4.923-.3,4.923-.3Z" transform="translate(-1188.01 -1486.409)" fill="#fff" fill-rule="evenodd"/>
              <path id="Path_7027" data-name="Path 7027" d="M1340.988,1462.56l.3,4.956,4.923.3-4.923.3-.3,4.956-.3-4.956-4.923-.3,4.923-.3Z" transform="translate(-1167.464 -1277.036)" fill="#fff" fill-rule="evenodd"/>
              <path id="Path_7028" data-name="Path 7028" d="M1001.538,1742.643a.968.968,0,0,1,.014.19c0,2.764-9.994,5-22.342,5s-22.342-2.233-22.342-5a.96.96,0,0,1,.014-.19v-5.623c12.131.1,10.373,3.05,22.437,3.05s10.725-2.6,22.22-3.05Z" transform="translate(-836.305 -1516.681)" fill="#f9ce0d" fill-rule="evenodd"/>
              <path id="Path_7029" data-name="Path 7029" d="M1188.038,1742.643a.968.968,0,0,1,.014.19c0,2.41-7.628,4.425-17.8,4.888v-7.788c7.506-.558,7.939-2.532,17.784-2.914Z" transform="translate(-1022.805 -1516.681)" fill="#f19d21" fill-rule="evenodd"/>
              <path id="Path_7030" data-name="Path 7030" d="M979.21,1706.119c12.307,0,22.342-2.247,22.342-5s-10.035-5-22.342-5-22.342,2.247-22.342,5,10.035,5,22.342,5" transform="translate(-836.305 -1480.973)" fill="#faec16" fill-rule="evenodd"/>
              <path id="Path_7031" data-name="Path 7031" d="M989.624,1712.059c11.482,0,20.841-1.8,20.841-4s-9.359-3.989-20.841-3.989-20.841,1.784-20.841,3.989,9.359,4,20.841,4" transform="translate(-846.719 -1487.908)" fill="#f9ce0d" fill-rule="evenodd"/>
              <path id="Path_7032" data-name="Path 7032" d="M998.817,1717.173c10.752,0,19.515-1.4,19.515-3.118s-8.764-3.118-19.515-3.118-19.515,1.4-19.515,3.118,8.764,3.118,19.515,3.118" transform="translate(-855.913 -1493.907)" fill="#faec16" fill-rule="evenodd"/>
              <path id="Path_7033" data-name="Path 7033" d="M1089.468,1720.189q0,.306-.609.531a7.892,7.892,0,0,1-1.7.381c-.744.109-1.623.191-2.651.245l-1.2.041v.191c0,.054-.2.082-.446.082h-1.839c-.244,0-.447-.027-.447-.082v-.15c-.554-.014-1.1-.014-1.609-.041-.69-.014-1.3-.041-1.853-.082s-1-.055-1.38-.1-.649-.068-.825-.1a.874.874,0,0,1-.379-.123.212.212,0,0,1-.122-.2.176.176,0,0,1,.054-.136.213.213,0,0,1,.108-.082.731.731,0,0,1,.2-.054,2,2,0,0,1,.3-.014,6.632,6.632,0,0,1,.771.054c.338.041.757.082,1.244.123s1.082.1,1.758.123,1.461.068,2.339.068q.994,0,1.785-.041c.541-.027,1-.068,1.407-.109a5.673,5.673,0,0,0,.906-.191c.216-.082.311-.177.311-.286s-.149-.191-.46-.272a10.791,10.791,0,0,0-1.2-.191c-.514-.055-1.082-.109-1.7-.15s-1.271-.1-1.948-.136-1.312-.109-1.948-.163-1.2-.136-1.718-.231a6.024,6.024,0,0,1-1.217-.313c-.3-.123-.46-.259-.46-.436,0-.15.162-.286.487-.436a6.355,6.355,0,0,1,1.461-.354c.649-.109,1.46-.191,2.421-.259.406-.014.825-.041,1.271-.054v-.218c0-.054.2-.082.447-.082h1.839c.243,0,.446.027.446.082v.19c.365,0,.73.014,1.109.027.555.014,1.069.041,1.528.054s.852.068,1.177.1.568.054.73.082.271.041.324.054.108.041.122.068a.369.369,0,0,1,.081.068c.027.027.027.068.027.122a.2.2,0,0,1-.027.123.468.468,0,0,1-.122.082.728.728,0,0,1-.2.055c-.081,0-.176.014-.257.014a4.222,4.222,0,0,1-.622-.054c-.271-.027-.622-.054-1.042-.1s-.933-.068-1.5-.109-1.244-.041-1.974-.041c-.663,0-1.258.014-1.758.041s-.919.068-1.244.109a3.589,3.589,0,0,0-.73.177c-.176.068-.257.15-.257.218,0,.109.162.2.473.286s.73.136,1.231.191,1.082.109,1.731.163,1.3.082,1.974.136,1.326.1,1.975.163a16.923,16.923,0,0,1,1.745.218,6.1,6.1,0,0,1,1.217.3c.311.122.46.259.46.422" transform="translate(-939.03 -1499.156)" fill="#ec8123" fill-rule="evenodd"/>
              <path id="Path_7034" data-name="Path 7034" d="M1034.4,1681.8c0,.054.014.123.014.177,0,2.764-10.008,5-22.342,5s-22.355-2.233-22.355-5c0-.054.014-.123.014-.177v-5.637c12.131.1,10.387,3.05,22.45,3.05s10.725-2.6,22.22-3.05Z" transform="translate(-865.012 -1463.54)" fill="#f9ce0d" fill-rule="evenodd"/>
              <path id="Path_7035" data-name="Path 7035" d="M1220.99,1681.8c0,.054.014.123.014.177,0,2.41-7.641,4.425-17.8,4.888v-7.788c7.506-.559,7.925-2.533,17.784-2.914Z" transform="translate(-1051.605 -1463.54)" fill="#f19d21" fill-rule="evenodd"/>
              <path id="Path_7036" data-name="Path 7036" d="M1012.068,1645.352c12.307,0,22.342-2.247,22.342-5s-10.035-4.983-22.342-4.983-22.355,2.233-22.355,4.983,10.035,5,22.355,5" transform="translate(-865.012 -1427.927)" fill="#faec16" fill-rule="evenodd"/>
              <path id="Path_7037" data-name="Path 7037" d="M1022.482,1651.2c11.468,0,20.841-1.8,20.841-4s-9.372-3.989-20.841-3.989-20.854,1.784-20.854,3.989,9.372,4,20.854,4" transform="translate(-875.426 -1434.768)" fill="#f9ce0d" fill-rule="evenodd"/>
              <path id="Path_7038" data-name="Path 7038" d="M1031.675,1656.313c10.738,0,19.515-1.4,19.515-3.118s-8.777-3.118-19.515-3.118-19.529,1.4-19.529,3.118,8.777,3.118,19.529,3.118" transform="translate(-884.618 -1440.767)" fill="#faec16" fill-rule="evenodd"/>
              <path id="Path_7039" data-name="Path 7039" d="M1122.421,1659.328q0,.307-.609.531a8.033,8.033,0,0,1-1.718.381c-.744.109-1.623.191-2.651.245-.379.014-.785.041-1.19.041v.191c0,.054-.2.082-.446.082h-1.853c-.244,0-.433-.027-.433-.082v-.15c-.568-.014-1.1-.014-1.623-.041-.676-.014-1.3-.041-1.839-.068s-1-.068-1.393-.109-.649-.068-.811-.1a1.066,1.066,0,0,1-.379-.109.246.246,0,0,1-.122-.218.23.23,0,0,1,.041-.136.321.321,0,0,1,.122-.082.532.532,0,0,1,.189-.054,2.214,2.214,0,0,1,.311-.013,6.584,6.584,0,0,1,.757.054q.507.061,1.258.122c.487.054,1.082.1,1.758.136s1.447.054,2.326.054c.663,0,1.271-.014,1.8-.041s1-.068,1.393-.109a5.893,5.893,0,0,0,.919-.191c.2-.082.311-.177.311-.272s-.149-.2-.46-.272a8.626,8.626,0,0,0-1.217-.2c-.5-.054-1.068-.109-1.7-.15s-1.271-.1-1.934-.136-1.325-.109-1.961-.163-1.2-.136-1.7-.218a6.953,6.953,0,0,1-1.217-.327c-.311-.123-.46-.259-.46-.436,0-.15.162-.286.487-.422a6.1,6.1,0,0,1,1.447-.367,23.159,23.159,0,0,1,2.434-.245c.392-.027.812-.054,1.271-.068v-.218c0-.041.189-.082.433-.082h1.853c.243,0,.446.041.446.082v.191c.365,0,.73.014,1.1.027.568.014,1.082.041,1.542.068s.839.055,1.163.082.581.054.744.082.27.041.325.054a.5.5,0,0,1,.122.068.162.162,0,0,1,.068.068.19.19,0,0,1,.041.123.22.22,0,0,1-.041.122.175.175,0,0,1-.122.082.723.723,0,0,1-.2.054,1.534,1.534,0,0,1-.257.014,4.538,4.538,0,0,1-.622-.055c-.257-.027-.609-.054-1.041-.1s-.92-.068-1.5-.1-1.231-.054-1.974-.054q-.994,0-1.745.041c-.514.027-.933.068-1.244.109a3.764,3.764,0,0,0-.744.177c-.162.068-.244.15-.244.218,0,.109.162.2.474.286a11.506,11.506,0,0,0,1.231.19c.5.068,1.082.109,1.718.163s1.312.082,1.974.136,1.339.1,1.988.163,1.231.136,1.731.218a5.663,5.663,0,0,1,1.217.3c.311.123.473.259.473.422" transform="translate(-967.831 -1446.015)" fill="#ec8123" fill-rule="evenodd"/>
              <path id="Path_7040" data-name="Path 7040" d="M1003.914,1614.5c0,.054.014.123.014.177,0,2.764-10.008,5-22.342,5s-22.356-2.233-22.356-5c0-.054.013-.123.013-.177v-5.637c12.131.109,10.387,3.063,22.45,3.063s10.725-2.614,22.22-3.063Z" transform="translate(-838.37 -1404.777)" fill="#f9ce0d" fill-rule="evenodd"/>
              <path id="Path_7041" data-name="Path 7041" d="M1190.507,1614.5c0,.054.013.123.013.177,0,2.41-7.641,4.425-17.8,4.888v-7.788c7.506-.558,7.939-2.532,17.784-2.914Z" transform="translate(-1024.963 -1404.777)" fill="#f19d21" fill-rule="evenodd"/>
              <path id="Path_7042" data-name="Path 7042" d="M981.584,1578.052c12.307,0,22.342-2.246,22.342-5s-10.035-4.983-22.342-4.983-22.355,2.233-22.355,4.983,10.049,5,22.355,5" transform="translate(-838.369 -1369.164)" fill="#faec16" fill-rule="evenodd"/>
              <path id="Path_7043" data-name="Path 7043" d="M992,1583.9c11.482,0,20.841-1.8,20.841-4s-9.359-3.989-20.841-3.989-20.854,1.8-20.854,3.989,9.372,4,20.854,4" transform="translate(-848.782 -1376.005)" fill="#f9ce0d" fill-rule="evenodd"/>
              <path id="Path_7044" data-name="Path 7044" d="M1001.192,1589.027c10.738,0,19.515-1.4,19.515-3.131s-8.777-3.118-19.515-3.118-19.529,1.4-19.529,3.118,8.777,3.131,19.529,3.131" transform="translate(-857.976 -1382.004)" fill="#faec16" fill-rule="evenodd"/>
              <path id="Path_7045" data-name="Path 7045" d="M1091.937,1592.041c0,.191-.2.368-.608.517a8.029,8.029,0,0,1-1.718.381c-.744.109-1.623.191-2.651.245-.379.014-.785.041-1.19.055v.19c0,.041-.2.068-.446.068h-1.853c-.244,0-.433-.027-.433-.068v-.163c-.568-.014-1.1-.014-1.623-.027-.676-.027-1.3-.055-1.839-.082s-1-.068-1.379-.109-.663-.068-.825-.1a1.168,1.168,0,0,1-.379-.109.246.246,0,0,1-.122-.218.231.231,0,0,1,.041-.136.641.641,0,0,1,.122-.082.621.621,0,0,1,.189-.054,2.172,2.172,0,0,1,.311-.014,6.645,6.645,0,0,1,.757.054c.338.041.757.082,1.258.136s1.082.082,1.758.123,1.447.054,2.326.054c.663,0,1.271-.014,1.8-.041s1-.068,1.393-.109a5.54,5.54,0,0,0,.92-.191c.2-.082.311-.177.311-.272s-.149-.2-.46-.272a8.591,8.591,0,0,0-1.217-.2c-.5-.055-1.068-.109-1.7-.15s-1.271-.082-1.934-.136-1.325-.1-1.961-.163-1.2-.136-1.7-.218a6.952,6.952,0,0,1-1.217-.327c-.311-.109-.46-.259-.46-.436,0-.15.162-.286.487-.422a7.087,7.087,0,0,1,1.447-.368c.663-.1,1.461-.191,2.434-.245.392-.027.811-.054,1.271-.068v-.218c0-.041.189-.082.433-.082h1.853c.243,0,.446.041.446.082v.19c.365,0,.73.014,1.1.027.568.014,1.082.041,1.542.068s.839.054,1.163.082.582.055.744.082.27.041.324.054a.483.483,0,0,1,.122.068.163.163,0,0,1,.068.068.2.2,0,0,1,0,.245q-.02.061-.122.082a.762.762,0,0,1-.189.055,1.72,1.72,0,0,1-.271.014,4.515,4.515,0,0,1-.622-.055c-.257-.027-.609-.054-1.042-.1s-.92-.068-1.5-.1-1.231-.054-1.975-.054q-.994,0-1.745.041a11.279,11.279,0,0,0-1.244.123,3.092,3.092,0,0,0-.744.163c-.162.068-.243.15-.243.231,0,.109.162.191.473.272a8.785,8.785,0,0,0,1.231.19c.5.068,1.082.109,1.731.163s1.3.1,1.961.136,1.339.109,1.988.163,1.231.136,1.731.218a7.087,7.087,0,0,1,1.23.3c.3.122.46.272.46.436" transform="translate(-941.188 -1387.251)" fill="#ec8123" fill-rule="evenodd"/>
              <path id="Path_7046" data-name="Path 7046" d="M1164.633,1663.065l.3,4.956,4.923.3-4.923.3-.3,4.956-.3-4.956-4.923-.3,4.923-.3Z" transform="translate(-1013.33 -1452.107)" fill="#fff" fill-rule="evenodd"/>
              <path id="Path_7047" data-name="Path 7047" d="M1589.372,739.445a9.551,9.551,0,1,0-9.487-9.551,9.536,9.536,0,0,0,9.487,9.551" transform="translate(-1380.824 -628.968)" fill="#84b2fe"/>
              <path id="Path_7048" data-name="Path 7048" d="M1584.542,739.445a9.551,9.551,0,1,0-9.487-9.551,9.536,9.536,0,0,0,9.487,9.551" transform="translate(-1376.602 -628.968)" fill="#dfe6ff"/>
              <path id="Path_7049" data-name="Path 7049" d="M1612.882,763.012c.675-1.29,1.35-1.934,2.7-1.934a2.643,2.643,0,0,1,2.7,2.579c0,2.578-2.7,5.157-5.4,7.735-2.7-2.578-5.4-5.157-5.4-7.735a2.643,2.643,0,0,1,2.7-2.579c1.35,0,2.025.645,2.7,1.934" transform="translate(-1404.943 -664.536)" fill="#e9708a"/>
            </g>
          </g>
        </g>
      </g>
    </g>
  </g>
</svg>
